<?xml version="1.0" encoding="UTF-8" standalone="no"?>
<svg
   xmlns:dc="http://purl.org/dc/elements/1.1/"
   xmlns:cc="http://creativecommons.org/ns#"
   xmlns:rdf="http://www.w3.org/1999/02/22-rdf-syntax-ns#"
   xmlns:svg="http://www.w3.org/2000/svg"
   xmlns="http://www.w3.org/2000/svg"
   xmlns:sodipodi="http://sodipodi.sourceforge.net/DTD/sodipodi-0.dtd"
   xmlns:inkscape="http://www.inkscape.org/namespaces/inkscape"
   version="1.1"
   id="svg4806"
   width="1220mm"
   height="575mm"
   sodipodi:docname="svgscreen.svg"
   inkscape:version="0.92.3 (2405546, 2018-03-11)">
  <metadata
     id="metadata4812">
    <rdf:RDF>
      <cc:Work
         rdf:about="">
        <dc:format>image/svg+xml</dc:format>
        <dc:type
           rdf:resource="http://purl.org/dc/dcmitype/StillImage" />
      </cc:Work>
    </rdf:RDF>
  </metadata>
  <defs
     id="defs4810" />
  <sodipodi:namedview
     pagecolor="#ffffff"
     bordercolor="#666666"
     borderopacity="1"
     objecttolerance="10"
     gridtolerance="10"
     guidetolerance="10"
     inkscape:pageopacity="0"
     inkscape:pageshadow="2"
     inkscape:window-width="1613"
     inkscape:window-height="986"
     id="namedview4808"
     showgrid="false"
     inkscape:zoom="8"
     inkscape:cx="50"
     inkscape:cy="45"
     inkscape:window-x="67"
     inkscape:window-y="27"
     inkscape:window-maximized="1"
     inkscape:current-layer="svg4806" />
  <g
     aria-label="glii"
     style="font-weight:500"
     id="text4760">
    <path
       d="m 5.4492187,6.6425781 q 0,-1.171875 -0.4863281,-1.8164062 Q 4.4824219,4.1816406 3.609375,4.1816406 q -0.8671875,0 -1.3535156,0.6445313 -0.4804688,0.6445312 -0.4804688,1.8164062 0,1.1660156 0.4804688,1.8105469 0.4863281,0.6445313 1.3535156,0.6445313 0.8730469,0 1.3535156,-0.6445313 0.4863281,-0.6445313 0.4863281,-1.8105469 z m 1.078125,2.5429688 q 0,1.6757811 -0.7441406,2.4902341 -0.7441406,0.820313 -2.2792968,0.820313 -0.5683594,0 -1.0722657,-0.08789 -0.5039062,-0.08203 -0.9785156,-0.257812 v -1.048828 q 0.4746094,0.257812 0.9375,0.380859 0.4628906,0.123047 0.9433594,0.123047 1.0605468,0 1.5878906,-0.556641 0.5273437,-0.550781 0.5273437,-1.6699217 V 8.8457031 Q 5.1152344,9.4257813 4.59375,9.7128906 4.0722656,10 3.3457031,10 2.1386719,10 1.4003906,9.0800781 0.66210937,8.1601563 0.66210937,6.6425781 q 0,-1.5234375 0.73828123,-2.4433594 0.7382813,-0.9199218 1.9453125,-0.9199218 0.7265625,0 1.2480469,0.2871094 0.5214844,0.2871093 0.8554687,0.8671874 V 3.4375 h 1.078125 z"
       style="font-weight:500"
       id="path4814" />
    <path
       d="m 8.7480469,0.8828125 h 1.078125 V 10 h -1.078125 z"
       style="font-weight:500"
       id="path4816" />
    <path
       d="m 12.076172,3.4375 h 1.078125 V 10 h -1.078125 z m 0,-2.5546875 h 1.078125 v 1.3652344 h -1.078125 z"
       style="font-weight:500"
       id="path4818" />
    <path
       d="m 15.404297,3.4375 h 1.078125 V 10 h -1.078125 z m 0,-2.5546875 h 1.078125 v 1.3652344 h -1.078125 z"
       style="font-weight:500"
       id="path4820" />
  </g>
  <g
     aria-label="föif"
     style="font-weight:500"
     id="text4762">
    <path
       d="m 24.453125,0.8828125 v 0.8964844 h -1.03125 q -0.580078,0 -0.808594,0.234375 -0.222656,0.234375 -0.222656,0.84375 V 3.4375 h 1.775391 V 4.2753906 H 22.390625 V 10 H 21.306641 V 4.2753906 h -1.03125 V 3.4375 h 1.03125 V 2.9804688 q 0,-1.0957032 0.509765,-1.5937501 0.509766,-0.5039062 1.617188,-0.5039062 z"
       style="font-weight:500"
       id="path4848" />
    <path
       d="m 27.892578,4.1933594 q -0.867187,0 -1.371094,0.6796875 -0.503906,0.6738281 -0.503906,1.8515625 0,1.1777343 0.498047,1.8574219 0.503906,0.6738281 1.376953,0.6738281 0.861328,0 1.365234,-0.6796875 0.503907,-0.6796875 0.503907,-1.8515625 0,-1.1660157 -0.503907,-1.8457032 -0.503906,-0.6855468 -1.365234,-0.6855468 z m 0,-0.9140625 q 1.40625,0 2.208984,0.9140625 0.802735,0.9140625 0.802735,2.53125 0,1.6113281 -0.802735,2.53125 -0.802734,0.9140626 -2.208984,0.9140626 -1.412109,0 -2.214844,-0.9140626 -0.796875,-0.9199219 -0.796875,-2.53125 0,-1.6171875 0.796875,-2.53125 0.802735,-0.9140625 2.214844,-0.9140625 z M 28.443359,0.90625 h 1.189453 v 1.1835938 h -1.189453 z m -2.291015,0 h 1.189453 v 1.1835938 h -1.189453 z"
       style="font-weight:500"
       id="path4850" />
    <path
       d="m 32.685547,3.4375 h 1.078125 V 10 h -1.078125 z m 0,-2.5546875 h 1.078125 v 1.3652344 h -1.078125 z"
       style="font-weight:500"
       id="path4852" />
    <path
       d="m 39.335937,0.8828125 v 0.8964844 h -1.03125 q -0.580078,0 -0.808593,0.234375 -0.222657,0.234375 -0.222657,0.84375 V 3.4375 h 1.775391 V 4.2753906 H 37.273437 V 10 H 36.189453 V 4.2753906 h -1.03125 V 3.4375 h 1.03125 V 2.9804688 q 0,-1.0957032 0.509766,-1.5937501 0.509765,-0.5039062 1.617187,-0.5039062 z"
       style="font-weight:500"
       id="path4854" />
  </g>
  <g
     aria-label="10"
     style="font-weight:500"
     id="text4764">
    <path
       d="m 44.488281,9.0039063 h 1.933594 V 2.3300781 l -2.103516,0.421875 v -1.078125 l 2.091797,-0.421875 h 1.183594 v 7.7519532 h 1.933594 V 10 h -5.039063 z"
       style="font-weight:500"
       id="path4872" />
    <path
       d="m 54.455078,2.03125 q -0.914062,0 -1.376953,0.9023438 -0.457031,0.8964843 -0.457031,2.7011718 0,1.7988281 0.457031,2.7011719 0.462891,0.8964844 1.376953,0.8964844 0.919922,0 1.376953,-0.8964844 0.462891,-0.9023438 0.462891,-2.7011719 0,-1.8046875 -0.462891,-2.7011718 Q 55.375,2.03125 54.455078,2.03125 Z m 0,-0.9375 q 1.470703,0 2.244141,1.1660156 0.779297,1.1601563 0.779297,3.375 0,2.2089844 -0.779297,3.375 -0.773438,1.1601564 -2.244141,1.1601564 -1.470703,0 -2.25,-1.1601564 -0.773437,-1.1660156 -0.773437,-3.375 0,-2.2148437 0.773437,-3.375 0.779297,-1.1660156 2.25,-1.1660156 z"
       style="font-weight:500"
       id="path4874" />
  </g>
  <g
     aria-label="viertel"
     style="font-weight:500"
     id="text4766">
    <path
       d="M 62.357422,3.4375 H 63.5 L 65.550781,8.9453125 67.601562,3.4375 h 1.142579 L 66.283203,10 h -1.464844 z"
       style="font-weight:500"
       id="path4857" />
    <path
       d="m 70.232422,3.4375 h 1.078125 V 10 h -1.078125 z m 0,-2.5546875 h 1.078125 v 1.3652344 h -1.078125 z"
       style="font-weight:500"
       id="path4859" />
    <path
       d="m 79.173828,6.4492187 v 0.5273438 h -4.957031 q 0.07031,1.1132813 0.667969,1.6992188 0.603515,0.5800781 1.675781,0.5800781 0.621094,0 1.201172,-0.1523438 0.585937,-0.1523437 1.160156,-0.4570312 v 1.0195312 q -0.580078,0.2460938 -1.189453,0.3750004 -0.609375,0.128906 -1.236328,0.128906 -1.570313,0 -2.490235,-0.9140626 -0.914062,-0.9140625 -0.914062,-2.4726563 0,-1.6113281 0.867187,-2.5546875 0.873047,-0.9492187 2.34961,-0.9492187 1.324218,0 2.091797,0.8554687 0.773437,0.8496094 0.773437,2.3144531 z M 78.095703,6.1328125 Q 78.083984,5.2480469 77.597656,4.7207031 77.117187,4.1933594 76.320312,4.1933594 q -0.902343,0 -1.447265,0.5097656 -0.539063,0.5097656 -0.621094,1.4355469 z"
       style="font-weight:500"
       id="path4861" />
    <path
       d="m 84.746094,4.4453125 q -0.181641,-0.1054688 -0.398438,-0.1523438 -0.210937,-0.052734 -0.46875,-0.052734 -0.914062,0 -1.40625,0.5976562 -0.486328,0.5917969 -0.486328,1.7050781 V 10 H 80.902344 V 3.4375 h 1.083984 v 1.0195312 q 0.339844,-0.5976562 0.884766,-0.8847656 0.544922,-0.2929687 1.324218,-0.2929687 0.111329,0 0.246094,0.017578 0.134766,0.011719 0.298828,0.041016 z"
       style="font-weight:500"
       id="path4863" />
    <path
       d="M 86.955078,1.5742187 V 3.4375 h 2.220703 v 0.8378906 h -2.220703 v 3.5625 q 0,0.8027344 0.216797,1.03125 0.222656,0.2285157 0.896484,0.2285157 h 1.107422 V 10 h -1.107422 q -1.248047,0 -1.722656,-0.4628906 -0.474609,-0.46875 -0.474609,-1.6992188 v -3.5625 H 85.080078 V 3.4375 h 0.791016 V 1.5742187 Z"
       style="font-weight:500"
       id="path4865" />
    <path
       d="m 96.212891,6.4492187 v 0.5273438 h -4.957032 q 0.07031,1.1132813 0.667969,1.6992188 0.603516,0.5800781 1.675781,0.5800781 0.621094,0 1.201172,-0.1523438 0.585938,-0.1523437 1.160156,-0.4570312 v 1.0195312 q -0.580078,0.2460938 -1.189453,0.3750004 -0.609375,0.128906 -1.236328,0.128906 -1.570312,0 -2.490234,-0.9140626 -0.914063,-0.9140625 -0.914063,-2.4726563 0,-1.6113281 0.867188,-2.5546875 0.873047,-0.9492187 2.349609,-0.9492187 1.324219,0 2.091797,0.8554687 0.773438,0.8496094 0.773438,2.3144531 z M 95.134766,6.1328125 Q 95.123047,5.2480469 94.636719,4.7207031 94.15625,4.1933594 93.359375,4.1933594 q -0.902344,0 -1.447266,0.5097656 -0.539062,0.5097656 -0.621093,1.4355469 z"
       style="font-weight:500"
       id="path4867" />
    <path
       d="m 97.982422,0.8828125 h 1.078125 V 10 h -1.078125 z"
       style="font-weight:500"
       id="path4869" />
  </g>
  <g
     aria-label="zwänzg"
     style="font-weight:500"
     id="text4768">
    <path
       d="M 0.66210937,18.4375 H 5.7832031 v 0.984375 L 1.7285156,24.138672 H 5.7832031 V 25 H 0.515625 V 24.015625 L 4.5703125,19.298828 H 0.66210937 Z"
       style="font-weight:500"
       id="path4835" />
    <path
       d="m 6.8085937,18.4375 h 1.078125 L 9.234375,23.558594 10.576172,18.4375 h 1.271484 l 1.347657,5.121094 1.341796,-5.121094 h 1.078125 L 13.898438,25 H 12.626953 L 11.214844,19.621094 9.796875,25 H 8.5253906 Z"
       style="font-weight:500"
       id="path4837" />
    <path
       d="m 20.238281,21.701172 q -1.30664,0 -1.810547,0.298828 -0.503906,0.298828 -0.503906,1.019531 0,0.574219 0.375,0.914063 0.380859,0.333984 1.03125,0.333984 0.896484,0 1.435547,-0.632812 0.544922,-0.638672 0.544922,-1.69336 v -0.240234 z m 2.150391,-0.445313 V 25 h -1.078125 v -0.996094 q -0.369141,0.597656 -0.919922,0.884766 -0.550781,0.28125 -1.347656,0.28125 -1.007813,0 -1.605469,-0.5625 -0.591797,-0.56836 -0.591797,-1.517578 0,-1.107422 0.738281,-1.669922 0.744141,-0.5625 2.214844,-0.5625 h 1.511719 v -0.105469 q 0,-0.744141 -0.492188,-1.148437 -0.486328,-0.410157 -1.371093,-0.410157 -0.5625,0 -1.095704,0.134766 -0.533203,0.134766 -1.02539,0.404297 v -0.996094 q 0.591797,-0.228516 1.148437,-0.339844 0.556641,-0.117187 1.083985,-0.117187 1.423828,0 2.126953,0.738281 0.703125,0.738281 0.703125,2.238281 z M 20.15625,15.90625 h 1.189453 v 1.183594 H 20.15625 Z m -2.291016,0 h 1.189453 v 1.183594 h -1.189453 z"
       style="font-weight:500"
       id="path4839" />
    <path
       d="M 30.070312,21.039062 V 25 h -1.078125 v -3.925781 q 0,-0.931641 -0.363281,-1.394532 -0.363281,-0.46289 -1.089844,-0.46289 -0.873046,0 -1.376953,0.55664 -0.503906,0.556641 -0.503906,1.517579 V 25 h -1.083984 v -6.5625 h 1.083984 v 1.019531 q 0.386719,-0.591797 0.908203,-0.884765 0.527344,-0.292969 1.212891,-0.292969 1.130859,0 1.710937,0.703125 0.580078,0.697265 0.580078,2.05664 z"
       style="font-weight:500"
       id="path4841" />
    <path
       d="m 31.763672,18.4375 h 5.121094 v 0.984375 l -4.054688,4.716797 h 4.054688 V 25 h -5.267579 v -0.984375 l 4.054688,-4.716797 h -3.908203 z"
       style="font-weight:500"
       id="path4843" />
    <path
       d="m 42.855469,21.642578 q 0,-1.171875 -0.486328,-1.816406 -0.480469,-0.644531 -1.353516,-0.644531 -0.867188,0 -1.353516,0.644531 -0.480468,0.644531 -0.480468,1.816406 0,1.166016 0.480468,1.810547 0.486328,0.644531 1.353516,0.644531 0.873047,0 1.353516,-0.644531 0.486328,-0.644531 0.486328,-1.810547 z m 1.078125,2.542969 q 0,1.675781 -0.744141,2.490234 -0.744141,0.820313 -2.279297,0.820313 -0.568359,0 -1.072265,-0.08789 -0.503907,-0.08203 -0.978516,-0.257812 v -1.048829 q 0.474609,0.257813 0.9375,0.38086 0.462891,0.123047 0.943359,0.123047 1.060547,0 1.587891,-0.556641 0.527344,-0.550781 0.527344,-1.669922 V 23.845703 Q 42.521484,24.425781 42,24.712891 41.478516,25 40.751953,25 q -1.207031,0 -1.945312,-0.919922 -0.738282,-0.919922 -0.738282,-2.4375 0,-1.523437 0.738282,-2.443359 0.738281,-0.919922 1.945312,-0.919922 0.726563,0 1.248047,0.287109 0.521484,0.28711 0.855469,0.867188 V 18.4375 h 1.078125 z"
       style="font-weight:500"
       id="path4845" />
  </g>
  <g
     aria-label="vor"
     style="font-weight:500"
     id="text4770">
    <path
       d="M 51.357422,18.6875 H 52.5 l 2.050781,5.507812 2.050781,-5.507812 h 1.142579 L 55.283203,25.25 h -1.464844 z"
       style="font-weight:500"
       id="path4828" />
    <path
       d="m 61.775391,19.443359 q -0.867188,0 -1.371094,0.679688 -0.503906,0.673828 -0.503906,1.851562 0,1.177735 0.498046,1.857422 0.503907,0.673828 1.376954,0.673828 0.861328,0 1.365234,-0.679687 0.503906,-0.679688 0.503906,-1.851563 0,-1.166015 -0.503906,-1.845703 -0.503906,-0.685547 -1.365234,-0.685547 z m 0,-0.914062 q 1.40625,0 2.208984,0.914062 0.802734,0.914063 0.802734,2.53125 0,1.611328 -0.802734,2.53125 -0.802734,0.914063 -2.208984,0.914063 -1.41211,0 -2.214844,-0.914063 -0.796875,-0.919922 -0.796875,-2.53125 0,-1.617187 0.796875,-2.53125 0.802734,-0.914062 2.214844,-0.914062 z"
       style="font-weight:500"
       id="path4830" />
    <path
       d="m 70.371094,19.695312 q -0.181641,-0.105468 -0.398438,-0.152343 -0.210937,-0.05273 -0.46875,-0.05273 -0.914062,0 -1.40625,0.597657 -0.486328,0.591796 -0.486328,1.705078 V 25.25 h -1.083984 v -6.5625 h 1.083984 v 1.019531 q 0.339844,-0.597656 0.884766,-0.884765 0.544922,-0.292969 1.324218,-0.292969 0.111329,0 0.246094,0.01758 0.134766,0.01172 0.298828,0.04102 z"
       style="font-weight:500"
       id="path4832" />
  </g>
  <g
     aria-label="ab"
     style="font-weight:500"
     id="text4772">
    <path
       d="m 84.113281,21.701172 q -1.30664,0 -1.810547,0.298828 -0.503906,0.298828 -0.503906,1.019531 0,0.574219 0.375,0.914063 0.380859,0.333984 1.03125,0.333984 0.896484,0 1.435547,-0.632812 0.544922,-0.638672 0.544922,-1.69336 v -0.240234 z m 2.150391,-0.445313 V 25 h -1.078125 v -0.996094 q -0.369141,0.597656 -0.919922,0.884766 -0.550781,0.28125 -1.347656,0.28125 -1.007813,0 -1.605469,-0.5625 -0.591797,-0.56836 -0.591797,-1.517578 0,-1.107422 0.738281,-1.669922 0.744141,-0.5625 2.214844,-0.5625 h 1.511719 v -0.105469 q 0,-0.744141 -0.492188,-1.148437 -0.486328,-0.410157 -1.371093,-0.410157 -0.5625,0 -1.095704,0.134766 -0.533203,0.134766 -1.02539,0.404297 v -0.996094 q 0.591797,-0.228516 1.148437,-0.339844 0.556641,-0.117187 1.083985,-0.117187 1.423828,0 2.126953,0.738281 0.703125,0.738281 0.703125,2.238281 z"
       style="font-weight:500"
       id="path4823" />
    <path
       d="m 93.201172,21.724609 q 0,-1.189453 -0.492188,-1.863281 -0.486328,-0.679687 -1.341797,-0.679687 -0.855468,0 -1.347656,0.679687 -0.486328,0.673828 -0.486328,1.863281 0,1.189453 0.486328,1.869141 0.492188,0.673828 1.347656,0.673828 0.855469,0 1.341797,-0.673828 0.492188,-0.679688 0.492188,-1.869141 z m -3.667969,-2.291015 q 0.339844,-0.585938 0.855469,-0.867188 0.521484,-0.287109 1.242187,-0.287109 1.195313,0 1.939453,0.949219 0.75,0.949218 0.75,2.496093 0,1.546875 -0.75,2.496094 -0.74414,0.949219 -1.939453,0.949219 -0.720703,0 -1.242187,-0.28125 -0.515625,-0.28711 -0.855469,-0.873047 V 25 h -1.083984 v -9.117187 h 1.083984 z"
       style="font-weight:500"
       id="path4825" />
  </g>
  <g
     aria-label="halb"
     style="font-weight:500"
     id="text4774">
    <path
       d="M 6.5859375,36.039062 V 40 h -1.078125 v -3.925781 q 0,-0.931641 -0.3632813,-1.394532 -0.3632812,-0.46289 -1.0898437,-0.46289 -0.8730469,0 -1.3769531,0.55664 -0.5039063,0.556641 -0.5039063,1.517579 V 40 H 1.0898437 v -9.117188 h 1.0839844 v 3.574219 q 0.3867188,-0.591797 0.9082032,-0.884765 0.5273437,-0.292969 1.2128906,-0.292969 1.1308593,0 1.7109375,0.703125 0.5800781,0.697265 0.5800781,2.05664 z"
       style="font-weight:500"
       id="path4877"
       inkscape:connector-curvature="0" />
    <path
       d="m 11.730469,36.701172 q -1.306641,0 -1.8105471,0.298828 -0.5039063,0.298828 -0.5039063,1.019531 0,0.574219 0.375,0.914063 0.3808594,0.333984 1.0312504,0.333984 0.896484,0 1.435547,-0.632812 0.544921,-0.638672 0.544921,-1.69336 v -0.240234 z m 2.15039,-0.445313 V 40 h -1.078125 v -0.996094 q -0.36914,0.597656 -0.919921,0.884766 -0.550782,0.28125 -1.347657,0.28125 -1.0078122,0 -1.6054685,-0.5625 -0.5917969,-0.56836 -0.5917969,-1.517578 0,-1.107422 0.7382813,-1.669922 0.7441406,-0.5625 2.2148441,-0.5625 h 1.511718 v -0.105469 q 0,-0.744141 -0.492187,-1.148437 -0.486328,-0.410157 -1.371094,-0.410157 -0.5625,0 -1.095703,0.134766 -0.5332031,0.134766 -1.0253906,0.404297 v -0.996094 q 0.5917969,-0.228516 1.1484375,-0.339844 0.5566411,-0.117187 1.0839841,-0.117187 1.423828,0 2.126953,0.738281 0.703125,0.738281 0.703125,2.238281 z"
       style="font-weight:500"
       id="path4879"
       inkscape:connector-curvature="0" />
    <path
       d="m 16.107422,30.882812 h 1.078125 V 40 h -1.078125 z"
       style="font-weight:500"
       id="path4881"
       inkscape:connector-curvature="0" />
    <path
       d="m 24.146484,36.724609 q 0,-1.189453 -0.492187,-1.863281 -0.486328,-0.679687 -1.341797,-0.679687 -0.855469,0 -1.347656,0.679687 -0.486328,0.673828 -0.486328,1.863281 0,1.189453 0.486328,1.869141 0.492187,0.673828 1.347656,0.673828 0.855469,0 1.341797,-0.673828 0.492187,-0.679688 0.492187,-1.869141 z m -3.667968,-2.291015 q 0.339843,-0.585938 0.855468,-0.867188 0.521485,-0.287109 1.242188,-0.287109 1.195312,0 1.939453,0.949219 0.75,0.949218 0.75,2.496093 0,1.546875 -0.75,2.496094 -0.744141,0.949219 -1.939453,0.949219 -0.720703,0 -1.242188,-0.28125 -0.515625,-0.28711 -0.855468,-0.873047 V 40 h -1.083985 v -9.117188 h 1.083985 z"
       style="font-weight:500"
       id="path4883"
       inkscape:connector-curvature="0" />
  </g>
  <g
     aria-label="grad"
     style="font-weight:500"
     id="text4776">
    <path
       d="m 31.949219,37.017578 q 0,-1.171875 -0.486328,-1.816406 -0.480469,-0.644531 -1.353516,-0.644531 -0.867188,0 -1.353516,0.644531 -0.480468,0.644531 -0.480468,1.816406 0,1.166016 0.480468,1.810547 0.486328,0.644531 1.353516,0.644531 0.873047,0 1.353516,-0.644531 0.486328,-0.644531 0.486328,-1.810547 z m 1.078125,2.542969 q 0,1.675781 -0.744141,2.490234 -0.744141,0.820313 -2.279297,0.820313 -0.568359,0 -1.072265,-0.08789 -0.503907,-0.08203 -0.978516,-0.257812 v -1.048829 q 0.474609,0.257813 0.9375,0.38086 0.462891,0.123047 0.943359,0.123047 1.060547,0 1.587891,-0.556641 0.527344,-0.550781 0.527344,-1.669922 V 39.220703 Q 31.615234,39.800781 31.09375,40.087891 30.572266,40.375 29.845703,40.375 q -1.207031,0 -1.945312,-0.919922 -0.738282,-0.919922 -0.738282,-2.4375 0,-1.523437 0.738282,-2.443359 0.738281,-0.919922 1.945312,-0.919922 0.726563,0 1.248047,0.287109 0.521484,0.28711 0.855469,0.867188 V 33.8125 h 1.078125 z"
       style="font-weight:500"
       id="path4886" />
    <path
       d="m 39.050781,34.820312 q -0.18164,-0.105468 -0.398437,-0.152343 -0.210938,-0.05273 -0.46875,-0.05273 -0.914063,0 -1.40625,0.597657 -0.486328,0.591796 -0.486328,1.705078 V 40.375 h -1.083985 v -6.5625 h 1.083985 v 1.019531 q 0.339843,-0.597656 0.884765,-0.884765 0.544922,-0.292969 1.324219,-0.292969 0.111328,0 0.246094,0.01758 0.134765,0.01172 0.298828,0.04102 z"
       style="font-weight:500"
       id="path4888" />
    <path
       d="m 43.175781,37.076172 q -1.30664,0 -1.810547,0.298828 -0.503906,0.298828 -0.503906,1.019531 0,0.574219 0.375,0.914063 0.380859,0.333984 1.03125,0.333984 0.896484,0 1.435547,-0.632812 0.544922,-0.638672 0.544922,-1.69336 v -0.240234 z m 2.150391,-0.445313 V 40.375 h -1.078125 v -0.996094 q -0.369141,0.597656 -0.919922,0.884766 -0.550781,0.28125 -1.347656,0.28125 -1.007813,0 -1.605469,-0.5625 -0.591797,-0.56836 -0.591797,-1.517578 0,-1.107422 0.738281,-1.669922 0.744141,-0.5625 2.214844,-0.5625 h 1.511719 v -0.105469 q 0,-0.744141 -0.492188,-1.148437 -0.486328,-0.410157 -1.371093,-0.410157 -0.5625,0 -1.095704,0.134766 -0.533203,0.134766 -1.02539,0.404297 v -0.996094 q 0.591797,-0.228516 1.148437,-0.339844 0.556641,-0.117187 1.083985,-0.117187 1.423828,0 2.126953,0.738281 0.703125,0.738281 0.703125,2.238281 z"
       style="font-weight:500"
       id="path4890" />
    <path
       d="m 51.871094,34.808594 v -3.550782 h 1.078125 V 40.375 h -1.078125 v -0.984375 q -0.339844,0.585937 -0.861328,0.873047 -0.515625,0.28125 -1.242188,0.28125 -1.189453,0 -1.939453,-0.949219 -0.744141,-0.949219 -0.744141,-2.496094 0,-1.546875 0.744141,-2.496093 0.75,-0.949219 1.939453,-0.949219 0.726563,0 1.242188,0.287109 0.521484,0.28125 0.861328,0.867188 z m -3.673828,2.291015 q 0,1.189453 0.486328,1.869141 0.492187,0.673828 1.347656,0.673828 0.855469,0 1.347656,-0.673828 0.492188,-0.679688 0.492188,-1.869141 0,-1.189453 -0.492188,-1.863281 -0.492187,-0.679687 -1.347656,-0.679687 -0.855469,0 -1.347656,0.679687 -0.486328,0.673828 -0.486328,1.863281 z"
       style="font-weight:500"
       id="path4892" />
  </g>
  <g
     aria-label="eis"
     style="font-weight:500"
     id="text4778">
    <path
       d="m 61.744141,36.449219 v 0.527343 h -4.957032 q 0.07031,1.113282 0.667969,1.699219 0.603516,0.580078 1.675781,0.580078 0.621094,0 1.201172,-0.152343 0.585938,-0.152344 1.160156,-0.457032 v 1.019532 q -0.580078,0.246093 -1.189453,0.375 -0.609375,0.128906 -1.236328,0.128906 -1.570312,0 -2.490234,-0.914063 -0.914063,-0.914062 -0.914063,-2.472656 0,-1.611328 0.867188,-2.554687 0.873047,-0.949219 2.349609,-0.949219 1.324219,0 2.091797,0.855469 0.773438,0.849609 0.773438,2.314453 z m -1.078125,-0.316407 q -0.01172,-0.884765 -0.498047,-1.412109 -0.480469,-0.527344 -1.277344,-0.527344 -0.902344,0 -1.447266,0.509766 -0.539062,0.509766 -0.621093,1.435547 z"
       style="font-weight:500"
       id="path4895" />
    <path
       d="m 63.513672,33.4375 h 1.078125 V 40 h -1.078125 z m 0,-2.554688 h 1.078125 v 1.365235 h -1.078125 z"
       style="font-weight:500"
       id="path4897" />
    <path
       d="m 71.025391,33.630859 v 1.019532 q -0.457032,-0.234375 -0.949219,-0.351563 -0.492188,-0.117187 -1.019531,-0.117187 -0.802735,0 -1.207032,0.246093 -0.398437,0.246094 -0.398437,0.738282 0,0.375 0.287109,0.591796 0.28711,0.210938 1.154297,0.404297 l 0.369141,0.08203 q 1.148437,0.246093 1.628906,0.697265 0.486328,0.445313 0.486328,1.248047 0,0.914063 -0.726562,1.447266 -0.720704,0.533203 -1.986329,0.533203 -0.527343,0 -1.101562,-0.105469 -0.568359,-0.09961 -1.201172,-0.304687 v -1.113282 q 0.597656,0.310547 1.177734,0.46875 0.580079,0.152344 1.148438,0.152344 0.761719,0 1.171875,-0.257812 0.410156,-0.263672 0.410156,-0.738282 0,-0.439453 -0.298828,-0.673828 -0.292969,-0.234375 -1.294922,-0.451172 l -0.375,-0.08789 q -1.001953,-0.210938 -1.447265,-0.644532 -0.445313,-0.439453 -0.445313,-1.201171 0,-0.925782 0.65625,-1.429688 0.65625,-0.503906 1.863281,-0.503906 0.597657,0 1.125,0.08789 0.527344,0.08789 0.972657,0.263672 z"
       style="font-weight:500"
       id="path4899" />
  </g>
  <g
     aria-label="zwöi"
     style="font-weight:500"
     id="text4780">
    <path
       d="m 74.287109,33.8125 h 5.121094 v 0.984375 l -4.054687,4.716797 h 4.054687 V 40.375 h -5.267578 v -0.984375 l 4.054687,-4.716797 h -3.908203 z"
       style="font-weight:500"
       id="path4902" />
    <path
       d="m 80.433594,33.8125 h 1.078125 l 1.347656,5.121094 1.341797,-5.121094 h 1.271484 l 1.347656,5.121094 1.341797,-5.121094 h 1.078125 L 87.523437,40.375 H 86.251953 L 84.839844,34.996094 83.421875,40.375 h -1.271484 z"
       style="font-weight:500"
       id="path4904" />
    <path
       d="m 93.423828,34.568359 q -0.867187,0 -1.371094,0.679688 -0.503906,0.673828 -0.503906,1.851562 0,1.177735 0.498047,1.857422 0.503906,0.673828 1.376953,0.673828 0.861328,0 1.365234,-0.679687 0.503907,-0.679688 0.503907,-1.851563 0,-1.166015 -0.503907,-1.845703 -0.503906,-0.685547 -1.365234,-0.685547 z m 0,-0.914062 q 1.40625,0 2.208984,0.914062 0.802735,0.914063 0.802735,2.53125 0,1.611328 -0.802735,2.53125 -0.802734,0.914063 -2.208984,0.914063 -1.412109,0 -2.214844,-0.914063 -0.796875,-0.919922 -0.796875,-2.53125 0,-1.617187 0.796875,-2.53125 0.802735,-0.914062 2.214844,-0.914062 z m 0.550781,-2.373047 h 1.189453 v 1.183594 h -1.189453 z m -2.291015,0 h 1.189453 v 1.183594 h -1.189453 z"
       style="font-weight:500"
       id="path4906" />
    <path
       d="m 98.216797,33.8125 h 1.078125 v 6.5625 h -1.078125 z m 0,-2.554688 h 1.078125 v 1.365235 h -1.078125 z"
       style="font-weight:500"
       id="path4908" />
  </g>
  <g
     aria-label="drü"
     style="font-weight:500"
     id="text4782">
    <path
       d="m 5.4492187,49.433594 v -3.550782 h 1.078125 V 55 h -1.078125 v -0.984375 q -0.3398437,0.585937 -0.8613281,0.873047 -0.515625,0.28125 -1.2421875,0.28125 -1.1894531,0 -1.9394531,-0.949219 -0.74414063,-0.949219 -0.74414063,-2.496094 0,-1.546875 0.74414063,-2.496093 0.75,-0.949219 1.9394531,-0.949219 0.7265625,0 1.2421875,0.287109 0.5214844,0.28125 0.8613281,0.867188 z m -3.6738281,2.291015 q 0,1.189453 0.4863282,1.869141 0.4921875,0.673828 1.3476562,0.673828 0.8554687,0 1.3476562,-0.673828 0.4921875,-0.679688 0.4921875,-1.869141 0,-1.189453 -0.4921875,-1.863281 -0.4921875,-0.679687 -1.3476562,-0.679687 -0.8554687,0 -1.3476562,0.679687 -0.4863282,0.673828 -0.4863282,1.863281 z"
       style="font-weight:500"
       id="path4911" />
    <path
       d="m 12.550781,49.445312 q -0.18164,-0.105468 -0.398437,-0.152343 -0.210938,-0.05273 -0.46875,-0.05273 -0.914063,0 -1.40625,0.597657 -0.4863284,0.591796 -0.4863284,1.705078 V 55 H 8.7070313 v -6.5625 h 1.0839843 v 1.019531 Q 10.130859,48.859375 10.675781,48.572266 11.220703,48.279297 12,48.279297 q 0.111328,0 0.246094,0.01758 0.134765,0.01172 0.298828,0.04102 z"
       style="font-weight:500"
       id="path4913" />
    <path
       d="M 13.582031,52.410156 V 48.4375 h 1.078125 v 3.931641 q 0,0.93164 0.363282,1.40039 0.363281,0.462891 1.089843,0.462891 0.873047,0 1.376953,-0.556641 Q 18,53.119141 18,52.158203 V 48.4375 h 1.078125 V 55 H 18 v -1.007813 q -0.392578,0.597657 -0.914063,0.890625 -0.515625,0.28711 -1.201171,0.28711 -1.13086,0 -1.716797,-0.703125 -0.585938,-0.703125 -0.585938,-2.056641 z m 2.712891,-4.130859 z m 0.539062,-2.373047 h 1.189453 v 1.183594 h -1.189453 z m -2.291015,0 h 1.189453 v 1.183594 h -1.189453 z"
       style="font-weight:500"
       id="path4915" />
  </g>
  <g
     aria-label="vieri"
     style="font-weight:500"
     id="text4784">
    <path
       d="M 30.357422,48.4375 H 31.5 l 2.050781,5.507812 2.050781,-5.507812 h 1.142579 L 34.283203,55 h -1.464844 z"
       style="font-weight:500"
       id="path4918" />
    <path
       d="m 38.232422,48.4375 h 1.078125 V 55 h -1.078125 z m 0,-2.554688 h 1.078125 v 1.365235 h -1.078125 z"
       style="font-weight:500"
       id="path4920" />
    <path
       d="m 47.173828,51.449219 v 0.527343 h -4.957031 q 0.07031,1.113282 0.667969,1.699219 0.603515,0.580078 1.675781,0.580078 0.621094,0 1.201172,-0.152343 0.585937,-0.152344 1.160156,-0.457032 v 1.019532 q -0.580078,0.246093 -1.189453,0.375 -0.609375,0.128906 -1.236328,0.128906 -1.570313,0 -2.490235,-0.914063 -0.914062,-0.914062 -0.914062,-2.472656 0,-1.611328 0.867187,-2.554687 0.873047,-0.949219 2.34961,-0.949219 1.324218,0 2.091797,0.855469 0.773437,0.849609 0.773437,2.314453 z m -1.078125,-0.316407 q -0.01172,-0.884765 -0.498047,-1.412109 -0.480469,-0.527344 -1.277344,-0.527344 -0.902343,0 -1.447265,0.509766 -0.539063,0.509766 -0.621094,1.435547 z"
       style="font-weight:500"
       id="path4922" />
    <path
       d="m 52.746094,49.445312 q -0.181641,-0.105468 -0.398438,-0.152343 -0.210937,-0.05273 -0.46875,-0.05273 -0.914062,0 -1.40625,0.597657 -0.486328,0.591796 -0.486328,1.705078 V 55 h -1.083984 v -6.5625 h 1.083984 v 1.019531 q 0.339844,-0.597656 0.884766,-0.884765 0.544922,-0.292969 1.324218,-0.292969 0.111329,0 0.246094,0.01758 0.134766,0.01172 0.298828,0.04102 z"
       style="font-weight:500"
       id="path4924" />
    <path
       d="m 53.888672,48.4375 h 1.078125 V 55 h -1.078125 z m 0,-2.554688 h 1.078125 v 1.365235 h -1.078125 z"
       style="font-weight:500"
       id="path4926" />
  </g>
  <g
     aria-label="föifi"
     style="font-weight:500"
     id="text4786">
    <path
       d="m 64.453125,45.882812 v 0.896485 h -1.03125 q -0.580078,0 -0.808594,0.234375 -0.222656,0.234375 -0.222656,0.84375 V 48.4375 h 1.775391 v 0.837891 H 62.390625 V 55 h -1.083984 v -5.724609 h -1.03125 V 48.4375 h 1.03125 v -0.457031 q 0,-1.095703 0.509765,-1.59375 0.509766,-0.503907 1.617188,-0.503907 z"
       style="font-weight:500"
       id="path4929" />
    <path
       d="m 67.892578,49.193359 q -0.867187,0 -1.371094,0.679688 -0.503906,0.673828 -0.503906,1.851562 0,1.177735 0.498047,1.857422 0.503906,0.673828 1.376953,0.673828 0.861328,0 1.365234,-0.679687 0.503907,-0.679688 0.503907,-1.851563 0,-1.166015 -0.503907,-1.845703 -0.503906,-0.685547 -1.365234,-0.685547 z m 0,-0.914062 q 1.40625,0 2.208984,0.914062 0.802735,0.914063 0.802735,2.53125 0,1.611328 -0.802735,2.53125 -0.802734,0.914063 -2.208984,0.914063 -1.412109,0 -2.214844,-0.914063 -0.796875,-0.919922 -0.796875,-2.53125 0,-1.617187 0.796875,-2.53125 0.802735,-0.914062 2.214844,-0.914062 z m 0.550781,-2.373047 h 1.189453 v 1.183594 h -1.189453 z m -2.291015,0 h 1.189453 v 1.183594 h -1.189453 z"
       style="font-weight:500"
       id="path4931" />
    <path
       d="m 72.685547,48.4375 h 1.078125 V 55 h -1.078125 z m 0,-2.554688 h 1.078125 v 1.365235 h -1.078125 z"
       style="font-weight:500"
       id="path4933" />
    <path
       d="M 81.316406,48.4375 V 55 H 80.232422 V 49.275391 H 77.273437 V 55 h -1.083984 v -5.724609 h -1.03125 V 48.4375 h 1.03125 v -0.457031 q 0,-1.072266 0.503906,-1.582032 0.509766,-0.515625 1.558594,-0.515625 h 1.083984 v 0.896485 h -1.03125 q -0.580078,0 -0.808593,0.234375 -0.222657,0.234375 -0.222657,0.84375 V 48.4375 Z m -1.083984,-2.542969 h 1.083984 v 1.365235 h -1.083984 z"
       style="font-weight:500"
       id="path4935" />
  </g>
  <text
     x="0"
     y="70"
     font-weight="500"
     id="text4788">
        sächsi
    </text>
  <g
     aria-label="7ni"
     style="font-weight:500"
     id="text4790">
    <path
       d="m 43.359375,61.626953 h 5.625 v 0.503906 L 45.808594,70.375 h -1.236328 l 2.988281,-7.751953 h -4.201172 z"
       style="font-weight:500"
       id="path4951" />
    <path
       d="M 56.601562,66.414062 V 70.375 h -1.078125 v -3.925781 q 0,-0.931641 -0.363281,-1.394532 -0.363281,-0.46289 -1.089844,-0.46289 -0.873046,0 -1.376953,0.55664 -0.503906,0.556641 -0.503906,1.517579 V 70.375 h -1.083984 v -6.5625 h 1.083984 v 1.019531 q 0.386719,-0.591797 0.908203,-0.884765 0.527344,-0.292969 1.212891,-0.292969 1.130859,0 1.710937,0.703125 0.580078,0.697265 0.580078,2.05664 z"
       style="font-weight:500"
       id="path4953" />
    <path
       d="m 58.763672,63.8125 h 1.078125 v 6.5625 h -1.078125 z m 0,-2.554688 h 1.078125 v 1.365235 h -1.078125 z"
       style="font-weight:500"
       id="path4955" />
  </g>
  <g
     aria-label="achti"
     style="font-weight:500"
     id="text4792">
    <path
       d="m 71.988281,66.451172 q -1.30664,0 -1.810547,0.298828 -0.503906,0.298828 -0.503906,1.019531 0,0.574219 0.375,0.914063 0.380859,0.333984 1.03125,0.333984 0.896484,0 1.435547,-0.632812 0.544922,-0.638672 0.544922,-1.69336 v -0.240234 z m 2.150391,-0.445313 V 69.75 h -1.078125 v -0.996094 q -0.369141,0.597656 -0.919922,0.884766 -0.550781,0.28125 -1.347656,0.28125 -1.007813,0 -1.605469,-0.5625 -0.591797,-0.56836 -0.591797,-1.517578 0,-1.107422 0.738281,-1.669922 0.744141,-0.5625 2.214844,-0.5625 h 1.511719 v -0.105469 q 0,-0.744141 -0.492188,-1.148437 -0.486328,-0.410157 -1.371093,-0.410157 -0.5625,0 -1.095704,0.134766 -0.533203,0.134766 -1.02539,0.404297 v -0.996094 q 0.591797,-0.228516 1.148437,-0.339844 0.556641,-0.117187 1.083985,-0.117187 1.423828,0 2.126953,0.738281 0.703125,0.738281 0.703125,2.238281 z"
       style="font-weight:500"
       id="path4958" />
    <path
       d="m 81.087891,63.439453 v 1.007813 q -0.457032,-0.251954 -0.919922,-0.375 -0.457032,-0.128907 -0.925782,-0.128907 -1.048828,0 -1.628906,0.667969 -0.580078,0.662109 -0.580078,1.863281 0,1.201172 0.580078,1.869141 0.580078,0.662109 1.628906,0.662109 0.46875,0 0.925782,-0.123047 0.46289,-0.128906 0.919922,-0.380859 v 0.996094 q -0.451172,0.210937 -0.9375,0.316406 -0.480469,0.105469 -1.025391,0.105469 -1.482422,0 -2.355469,-0.931641 -0.873047,-0.93164 -0.873047,-2.513672 0,-1.605468 0.878907,-2.52539 0.884765,-0.919922 2.419921,-0.919922 0.498047,0 0.972657,0.105469 0.474609,0.09961 0.919922,0.304687 z"
       style="font-weight:500"
       id="path4960" />
    <path
       d="M 88.429687,65.789062 V 69.75 h -1.078125 v -3.925781 q 0,-0.931641 -0.363281,-1.394532 -0.363281,-0.46289 -1.089844,-0.46289 -0.873046,0 -1.376953,0.55664 -0.503906,0.556641 -0.503906,1.517579 V 69.75 h -1.083984 v -9.117188 h 1.083984 v 3.574219 q 0.386719,-0.591797 0.908203,-0.884765 0.527344,-0.292969 1.212891,-0.292969 1.130859,0 1.710937,0.703125 0.580078,0.697265 0.580078,2.05664 z"
       style="font-weight:500"
       id="path4962" />
    <path
       d="M 91.658203,61.324219 V 63.1875 h 2.220703 v 0.837891 h -2.220703 v 3.5625 q 0,0.802734 0.216797,1.03125 0.222656,0.228515 0.896484,0.228515 h 1.107422 V 69.75 h -1.107422 q -1.248047,0 -1.722656,-0.462891 -0.474609,-0.46875 -0.474609,-1.699218 v -3.5625 H 89.783203 V 63.1875 h 0.791016 v -1.863281 z"
       style="font-weight:500"
       id="path4964" />
    <path
       d="m 95.302734,63.1875 h 1.078125 V 69.75 h -1.078125 z m 0,-2.554688 h 1.078125 v 1.365235 h -1.078125 z"
       style="font-weight:500"
       id="path4966" />
  </g>
  <g
     aria-label="sächsi"
     style="font-weight:500"
     id="text4794">
    <path
       d="m 5.3144531,63.630859 v 1.019532 Q 4.8574219,64.416016 4.3652344,64.298828 3.8730469,64.181641 3.3457031,64.181641 q -0.8027343,0 -1.2070312,0.246093 -0.3984375,0.246094 -0.3984375,0.738282 0,0.375 0.2871094,0.591796 0.2871093,0.210938 1.1542968,0.404297 l 0.3691407,0.08203 q 1.1484374,0.246093 1.6289062,0.697265 0.4863281,0.445313 0.4863281,1.248047 0,0.914063 -0.7265625,1.447266 -0.7207031,0.533203 -1.9863281,0.533203 -0.5273437,0 -1.1015625,-0.105469 -0.5683594,-0.09961 -1.20117188,-0.304687 v -1.113282 q 0.59765628,0.310547 1.17773438,0.46875 0.5800781,0.152344 1.1484375,0.152344 0.7617188,0 1.171875,-0.257812 0.4101562,-0.263672 0.4101562,-0.738282 0,-0.439453 -0.2988281,-0.673828 -0.2929687,-0.234375 -1.2949218,-0.451172 l -0.375,-0.08789 Q 1.5878906,66.847656 1.1425781,66.414062 0.69726562,65.974609 0.69726562,65.212891 q 0,-0.925782 0.65624998,-1.429688 0.65625,-0.503906 1.8632813,-0.503906 0.5976562,0 1.125,0.08789 0.5273437,0.08789 0.9726562,0.263672 z"
       style="font-weight:500"
       id="path4938" />
    <path
       d="m 10.371094,66.701172 q -1.3066409,0 -1.8105471,0.298828 -0.5039063,0.298828 -0.5039063,1.019531 0,0.574219 0.375,0.914063 0.3808594,0.333984 1.03125,0.333984 0.8964844,0 1.4355474,-0.632812 0.544921,-0.638672 0.544921,-1.69336 v -0.240234 z m 2.15039,-0.445313 V 70 h -1.078125 v -0.996094 q -0.36914,0.597656 -0.919921,0.884766 -0.5507817,0.28125 -1.3476567,0.28125 -1.0078125,0 -1.6054688,-0.5625 -0.5917969,-0.56836 -0.5917969,-1.517578 0,-1.107422 0.7382813,-1.669922 0.7441406,-0.5625 2.2148437,-0.5625 h 1.5117184 v -0.105469 q 0,-0.744141 -0.492187,-1.148437 -0.486328,-0.410157 -1.3710939,-0.410157 -0.5625,0 -1.0957031,0.134766 -0.5332031,0.134766 -1.0253906,0.404297 v -0.996094 q 0.5917969,-0.228516 1.1484375,-0.339844 0.5566406,-0.117187 1.0839844,-0.117187 1.4238277,0 2.1269527,0.738281 0.703125,0.738281 0.703125,2.238281 z M 10.289063,60.90625 h 1.189453 v 1.183594 h -1.189453 z m -2.2910161,0 H 9.1875 v 1.183594 H 7.9980469 Z"
       style="font-weight:500"
       id="path4940" />
    <path
       d="m 19.470703,63.689453 v 1.007813 q -0.457031,-0.251954 -0.919922,-0.375 -0.457031,-0.128907 -0.925781,-0.128907 -1.048828,0 -1.628906,0.667969 -0.580078,0.662109 -0.580078,1.863281 0,1.201172 0.580078,1.869141 0.580078,0.662109 1.628906,0.662109 0.46875,0 0.925781,-0.123047 0.462891,-0.128906 0.919922,-0.380859 v 0.996094 q -0.451172,0.210937 -0.9375,0.316406 -0.480469,0.105469 -1.025391,0.105469 -1.482421,0 -2.355468,-0.931641 -0.873047,-0.93164 -0.873047,-2.513672 0,-1.605468 0.878906,-2.52539 0.884766,-0.919922 2.419922,-0.919922 0.498047,0 0.972656,0.105469 0.47461,0.09961 0.919922,0.304687 z"
       style="font-weight:500"
       id="path4942" />
    <path
       d="M 26.8125,66.039062 V 70 h -1.078125 v -3.925781 q 0,-0.931641 -0.363281,-1.394532 -0.363282,-0.46289 -1.089844,-0.46289 -0.873047,0 -1.376953,0.55664 -0.503906,0.556641 -0.503906,1.517579 V 70 h -1.083985 v -9.117188 h 1.083985 v 3.574219 q 0.386718,-0.591797 0.908203,-0.884765 0.527343,-0.292969 1.21289,-0.292969 1.13086,0 1.710938,0.703125 0.580078,0.697265 0.580078,2.05664 z"
       style="font-weight:500"
       id="path4944" />
    <path
       d="m 33.158203,63.630859 v 1.019532 q -0.457031,-0.234375 -0.949219,-0.351563 -0.492187,-0.117187 -1.019531,-0.117187 -0.802734,0 -1.207031,0.246093 -0.398438,0.246094 -0.398438,0.738282 0,0.375 0.28711,0.591796 0.287109,0.210938 1.154297,0.404297 l 0.36914,0.08203 q 1.148438,0.246093 1.628906,0.697265 0.486329,0.445313 0.486329,1.248047 0,0.914063 -0.726563,1.447266 -0.720703,0.533203 -1.986328,0.533203 -0.527344,0 -1.101563,-0.105469 -0.568359,-0.09961 -1.201171,-0.304687 v -1.113282 q 0.597656,0.310547 1.177734,0.46875 0.580078,0.152344 1.148437,0.152344 0.761719,0 1.171875,-0.257812 0.410157,-0.263672 0.410157,-0.738282 0,-0.439453 -0.298828,-0.673828 -0.292969,-0.234375 -1.294922,-0.451172 l -0.375,-0.08789 q -1.001953,-0.210938 -1.447266,-0.644532 -0.445312,-0.439453 -0.445312,-1.201171 0,-0.925782 0.65625,-1.429688 0.65625,-0.503906 1.863281,-0.503906 0.597656,0 1.125,0.08789 0.527344,0.08789 0.972656,0.263672 z"
       style="font-weight:500"
       id="path4946" />
    <path
       d="m 35.232422,63.4375 h 1.078125 V 70 h -1.078125 z m 0,-2.554688 h 1.078125 v 1.365235 h -1.078125 z"
       style="font-weight:500"
       id="path4948" />
  </g>
  <g
     aria-label="nüüni"
     style="font-weight:500"
     id="text4796">
    <path
       d="M 8.5859375,79.289062 V 83.25 h -1.078125 v -3.925781 q 0,-0.931641 -0.3632813,-1.394532 -0.3632812,-0.46289 -1.0898437,-0.46289 -0.8730469,0 -1.3769531,0.55664 -0.5039063,0.556641 -0.5039063,1.517579 V 83.25 H 3.0898438 v -6.5625 h 1.0839843 v 1.019531 q 0.3867188,-0.591797 0.9082031,-0.884765 0.5273438,-0.292969 1.2128907,-0.292969 1.1308593,0 1.7109375,0.703125 0.5800781,0.697265 0.5800781,2.05664 z"
       style="font-weight:500"
       id="path4969" />
    <path
       d="M 10.636719,80.660156 V 76.6875 h 1.078125 v 3.931641 q 0,0.93164 0.363281,1.40039 0.363281,0.462891 1.089844,0.462891 0.873047,0 1.376953,-0.556641 0.509766,-0.55664 0.509766,-1.517578 V 76.6875 h 1.078124 V 83.25 h -1.078124 v -1.007813 q -0.392579,0.597657 -0.914063,0.890625 -0.515625,0.28711 -1.201172,0.28711 -1.130859,0 -1.716797,-0.703125 -0.585937,-0.703125 -0.585937,-2.056641 z m 2.71289,-4.130859 z m 0.539063,-2.373047 h 1.189453 v 1.183594 h -1.189453 z m -2.291016,0 h 1.189453 v 1.183594 h -1.189453 z"
       style="font-weight:500"
       id="path4971" />
    <path
       d="M 18.253906,80.660156 V 76.6875 h 1.078125 v 3.931641 q 0,0.93164 0.363281,1.40039 0.363282,0.462891 1.089844,0.462891 0.873047,0 1.376953,-0.556641 0.509766,-0.55664 0.509766,-1.517578 V 76.6875 H 23.75 V 83.25 h -1.078125 v -1.007813 q -0.392578,0.597657 -0.914063,0.890625 -0.515625,0.28711 -1.201171,0.28711 -1.13086,0 -1.716797,-0.703125 -0.585938,-0.703125 -0.585938,-2.056641 z m 2.712891,-4.130859 z m 0.539062,-2.373047 h 1.189453 v 1.183594 h -1.189453 z m -2.291015,0 h 1.189453 v 1.183594 h -1.189453 z"
       style="font-weight:500"
       id="path4973" />
    <path
       d="M 31.4375,79.289062 V 83.25 h -1.078125 v -3.925781 q 0,-0.931641 -0.363281,-1.394532 -0.363282,-0.46289 -1.089844,-0.46289 -0.873047,0 -1.376953,0.55664 -0.503906,0.556641 -0.503906,1.517579 V 83.25 h -1.083985 v -6.5625 h 1.083985 v 1.019531 q 0.386718,-0.591797 0.908203,-0.884765 0.527343,-0.292969 1.21289,-0.292969 1.13086,0 1.710938,0.703125 0.580078,0.697265 0.580078,2.05664 z"
       style="font-weight:500"
       id="path4975" />
    <path
       d="m 33.599609,76.6875 h 1.078125 V 83.25 h -1.078125 z m 0,-2.554688 h 1.078125 v 1.365235 h -1.078125 z"
       style="font-weight:500"
       id="path4977" />
  </g>
  <g
     aria-label="zäni"
     style="font-weight:500"
     id="text4798">
    <path
       d="m 40.787109,76.3125 h 5.121094 v 0.984375 l -4.054687,4.716797 h 4.054687 V 82.875 h -5.267578 v -0.984375 l 4.054687,-4.716797 h -3.908203 z"
       style="font-weight:500"
       id="path4980" />
    <path
       d="m 50.542969,79.576172 q -1.306641,0 -1.810547,0.298828 -0.503906,0.298828 -0.503906,1.019531 0,0.574219 0.375,0.914063 0.380859,0.333984 1.03125,0.333984 0.896484,0 1.435546,-0.632812 0.544922,-0.638672 0.544922,-1.69336 v -0.240234 z m 2.15039,-0.445313 V 82.875 h -1.078125 v -0.996094 q -0.36914,0.597656 -0.919922,0.884766 -0.550781,0.28125 -1.347656,0.28125 -1.007812,0 -1.605469,-0.5625 -0.591796,-0.56836 -0.591796,-1.517578 0,-1.107422 0.738281,-1.669922 0.74414,-0.5625 2.214844,-0.5625 h 1.511718 v -0.105469 q 0,-0.744141 -0.492187,-1.148437 -0.486328,-0.410157 -1.371094,-0.410157 -0.5625,0 -1.095703,0.134766 -0.533203,0.134766 -1.025391,0.404297 v -0.996094 q 0.591797,-0.228516 1.148438,-0.339844 0.55664,-0.117187 1.083984,-0.117187 1.423828,0 2.126953,0.738281 0.703125,0.738281 0.703125,2.238281 z M 50.460937,73.78125 h 1.189454 v 1.183594 h -1.189454 z m -2.291015,0 h 1.189453 v 1.183594 h -1.189453 z"
       style="font-weight:500"
       id="path4982" />
    <path
       d="M 60.375,78.914062 V 82.875 h -1.078125 v -3.925781 q 0,-0.931641 -0.363281,-1.394532 -0.363282,-0.46289 -1.089844,-0.46289 -0.873047,0 -1.376953,0.55664 -0.503906,0.556641 -0.503906,1.517579 V 82.875 h -1.083985 v -6.5625 h 1.083985 v 1.019531 q 0.386718,-0.591797 0.908203,-0.884765 0.527343,-0.292969 1.21289,-0.292969 1.13086,0 1.710938,0.703125 0.580078,0.697265 0.580078,2.05664 z"
       style="font-weight:500"
       id="path4984" />
    <path
       d="m 62.537109,76.3125 h 1.078125 v 6.5625 h -1.078125 z m 0,-2.554688 h 1.078125 v 1.365235 h -1.078125 z"
       style="font-weight:500"
       id="path4986" />
  </g>
  <g
     aria-label="elfi"
     style="font-weight:500"
     id="text4800">
    <path
       d="m 78.244141,78.699219 v 0.527343 h -4.957032 q 0.07031,1.113282 0.667969,1.699219 0.603516,0.580078 1.675781,0.580078 0.621094,0 1.201172,-0.152343 0.585938,-0.152344 1.160156,-0.457032 v 1.019532 q -0.580078,0.246093 -1.189453,0.375 -0.609375,0.128906 -1.236328,0.128906 -1.570312,0 -2.490234,-0.914063 -0.914063,-0.914062 -0.914063,-2.472656 0,-1.611328 0.867188,-2.554687 0.873047,-0.949219 2.349609,-0.949219 1.324219,0 2.091797,0.855469 0.773438,0.849609 0.773438,2.314453 z m -1.078125,-0.316407 q -0.01172,-0.884765 -0.498047,-1.412109 -0.480469,-0.527344 -1.277344,-0.527344 -0.902344,0 -1.447266,0.509766 -0.539062,0.509766 -0.621093,1.435547 z"
       style="font-weight:500"
       id="path4989" />
    <path
       d="m 80.013672,73.132812 h 1.078125 V 82.25 h -1.078125 z"
       style="font-weight:500"
       id="path4991" />
    <path
       d="M 88.644531,75.6875 V 82.25 H 87.560547 V 76.525391 H 84.601562 V 82.25 h -1.083984 v -5.724609 h -1.03125 V 75.6875 h 1.03125 v -0.457031 q 0,-1.072266 0.503906,-1.582032 0.509766,-0.515625 1.558594,-0.515625 h 1.083984 v 0.896485 h -1.03125 q -0.580078,0 -0.808593,0.234375 -0.222657,0.234375 -0.222657,0.84375 V 75.6875 Z m -1.083984,-2.542969 h 1.083984 v 1.365235 h -1.083984 z"
       style="font-weight:500"
       id="path4993" />
  </g>
  <g
     aria-label="zwölfi"
     style="font-weight:500"
     id="text4802">
    <path
       d="m 8.0371094,89.8125 h 5.1210936 v 0.984375 L 9.1035156,95.513672 H 13.158203 V 96.375 H 7.890625 v -0.984375 l 4.054688,-4.716797 H 8.0371094 Z"
       style="font-weight:500"
       id="path5007" />
    <path
       d="m 14.183594,89.8125 h 1.078125 l 1.347656,5.121094 1.341797,-5.121094 h 1.271484 l 1.347656,5.121094 1.341797,-5.121094 h 1.078125 L 21.273437,96.375 H 20.001953 L 18.589844,90.996094 17.171875,96.375 h -1.271484 z"
       style="font-weight:500"
       id="path5009" />
    <path
       d="m 27.173828,90.568359 q -0.867187,0 -1.371094,0.679688 -0.503906,0.673828 -0.503906,1.851562 0,1.177735 0.498047,1.857422 0.503906,0.673828 1.376953,0.673828 0.861328,0 1.365234,-0.679687 0.503907,-0.679688 0.503907,-1.851563 0,-1.166015 -0.503907,-1.845703 -0.503906,-0.685547 -1.365234,-0.685547 z m 0,-0.914062 q 1.40625,0 2.208984,0.914062 0.802735,0.914063 0.802735,2.53125 0,1.611328 -0.802735,2.53125 -0.802734,0.914063 -2.208984,0.914063 -1.412109,0 -2.214844,-0.914063 -0.796875,-0.919922 -0.796875,-2.53125 0,-1.617187 0.796875,-2.53125 0.802735,-0.914062 2.214844,-0.914062 z m 0.550781,-2.373047 h 1.189453 v 1.183594 h -1.189453 z m -2.291015,0 h 1.189453 v 1.183594 h -1.189453 z"
       style="font-weight:500"
       id="path5011" />
    <path
       d="m 31.966797,87.257812 h 1.078125 V 96.375 h -1.078125 z"
       style="font-weight:500"
       id="path5013" />
    <path
       d="M 40.597656,89.8125 V 96.375 H 39.513672 V 90.650391 H 36.554687 V 96.375 h -1.083984 v -5.724609 h -1.03125 V 89.8125 h 1.03125 v -0.457031 q 0,-1.072266 0.503906,-1.582032 0.509766,-0.515625 1.558594,-0.515625 h 1.083984 v 0.896485 h -1.03125 q -0.580078,0 -0.808593,0.234375 -0.222657,0.234375 -0.222657,0.84375 V 89.8125 Z m -1.083984,-2.542969 h 1.083984 v 1.365235 h -1.083984 z"
       style="font-weight:500"
       id="path5015" />
  </g>
  <g
     aria-label="gsii."
     style="font-weight:500"
     id="text4804">
    <path
       d="m 56.324219,91.517578 q 0,-1.171875 -0.486328,-1.816406 -0.480469,-0.644531 -1.353516,-0.644531 -0.867188,0 -1.353516,0.644531 -0.480468,0.644531 -0.480468,1.816406 0,1.166016 0.480468,1.810547 0.486328,0.644531 1.353516,0.644531 0.873047,0 1.353516,-0.644531 0.486328,-0.644531 0.486328,-1.810547 z m 1.078125,2.542969 q 0,1.675781 -0.744141,2.490234 -0.744141,0.820313 -2.279297,0.820313 -0.568359,0 -1.072265,-0.08789 -0.503907,-0.08203 -0.978516,-0.257812 v -1.048829 q 0.474609,0.257813 0.9375,0.38086 0.462891,0.123047 0.943359,0.123047 1.060547,0 1.587891,-0.556641 0.527344,-0.550781 0.527344,-1.669922 V 93.720703 Q 55.990234,94.300781 55.46875,94.587891 54.947266,94.875 54.220703,94.875 q -1.207031,0 -1.945312,-0.919922 -0.738282,-0.919922 -0.738282,-2.4375 0,-1.523437 0.738282,-2.443359 0.738281,-0.919922 1.945312,-0.919922 0.726563,0 1.248047,0.287109 0.521484,0.28711 0.855469,0.867188 V 88.3125 h 1.078125 z"
       style="font-weight:500"
       id="path4996" />
    <path
       d="m 63.806641,88.505859 v 1.019532 q -0.457032,-0.234375 -0.949219,-0.351563 -0.492188,-0.117187 -1.019531,-0.117187 -0.802735,0 -1.207032,0.246093 -0.398437,0.246094 -0.398437,0.738282 0,0.375 0.287109,0.591796 0.28711,0.210938 1.154297,0.404297 l 0.369141,0.08203 q 1.148437,0.246093 1.628906,0.697265 0.486328,0.445313 0.486328,1.248047 0,0.914063 -0.726562,1.447266 -0.720704,0.533203 -1.986329,0.533203 -0.527343,0 -1.101562,-0.105469 -0.568359,-0.09961 -1.201172,-0.304687 v -1.113282 q 0.597656,0.310547 1.177734,0.46875 0.580079,0.152344 1.148438,0.152344 0.761719,0 1.171875,-0.257812 0.410156,-0.263672 0.410156,-0.738282 0,-0.439453 -0.298828,-0.673828 -0.292969,-0.234375 -1.294922,-0.451172 l -0.375,-0.08789 q -1.001953,-0.210938 -1.447265,-0.644532 -0.445313,-0.439453 -0.445313,-1.201171 0,-0.925782 0.65625,-1.429688 0.65625,-0.503906 1.863281,-0.503906 0.597657,0 1.125,0.08789 0.527344,0.08789 0.972657,0.263672 z"
       style="font-weight:500"
       id="path4998" />
    <path
       d="m 65.880859,88.3125 h 1.078125 v 6.5625 h -1.078125 z m 0,-2.554688 h 1.078125 v 1.365235 h -1.078125 z"
       style="font-weight:500"
       id="path5000" />
    <path
       d="m 69.208984,88.3125 h 1.078125 v 6.5625 h -1.078125 z m 0,-2.554688 h 1.078125 v 1.365235 h -1.078125 z"
       style="font-weight:500"
       id="path5002" />
    <path
       d="m 72.689453,93.386719 h 1.236328 V 94.875 h -1.236328 z"
       style="font-weight:500"
       id="path5004" />
  </g>
</svg>
